<?xml version="1.0" encoding="utf-8"?>
<!-- Generator: Adobe Illustrator 19.0.0, SVG Export Plug-In . SVG Version: 6.00 Build 0)  -->
<svg version="1.1" id="Layer_1" xmlns="http://www.w3.org/2000/svg" xmlns:xlink="http://www.w3.org/1999/xlink" x="0px" y="0px"
	 viewBox="0 0 113.1 114.3" style="enable-background:new 0 0 113.1 114.3;" xml:space="preserve">
<style type="text/css">
	.st0{fill:#010101;}
</style>
<g id="XMLID_145_" transform="translate(0,-1020.3622)">
	<g id="XMLID_146_" transform="translate(275.99997,-37.000012)">
		<g id="XMLID_147_" transform="translate(-275.99997,39.000012)">
			<g id="XMLID_148_" transform="translate(117.36766,-234.0012)">
				<path id="XMLID_149_" class="st0" d="M-42.5,1265.4v11.3h-49.6h-5.7c-3.9,0-7.1,3.2-7.1,7.1v53.9c0,0.1,0,0.2,0,0.3
					c0.2,3.8,3.3,6.8,7.1,6.8h4.3v-11.3H-44h5.7c3.9,0,7.1-3.2,7.1-7.1v-48.2v-5.7c0-3.9-3.2-7.1-7.1-7.1H-42.5z M-39.7,1268.2h1.4
					c2.4,0,4.3,1.9,4.3,4.3v5.7v42.9c-1.2-1-2.6-1.8-4.3-1.8h-1.4V1268.2z M-97.8,1279.5h5.7h49.6v42.5h4.3c2.4,0,4.3,1.9,4.3,4.3
					c0,2.4-1.9,4.3-4.3,4.3H-44h-53.1h-0.8c-1.6,0-3.1,0.6-4.3,1.5v-48.2C-102.1,1281.4-100.2,1279.5-97.8,1279.5z M-26.9,1279.5
					c-0.8,0-1.4,0.6-1.4,1.4v51c0,0.8,0.6,1.4,1.4,1.4h11.3c0.8,0,1.4-0.6,1.4-1.4v-51c0-0.8-0.6-1.4-1.4-1.4H-26.9z M-25.5,1282.4
					h8.5v48.2h-8.5v-2.8h5.7v-2.8h-5.7v-2.8h2.8v-2.8h-2.8v-2.8h5.7v-2.8h-5.7v-2.8h2.8v-2.8h-2.8v-2.8h5.7v-2.8h-5.7v-2.8h2.8v-2.8
					h-2.8v-2.8h5.7v-2.8h-5.7v-2.8h2.8v-2.8h-2.8V1282.4z M-92.2,1285.2c-0.8,0-1.4,0.6-1.4,1.4v36.9c0,0.8,0.6,1.4,1.4,1.4h42.5
					c0.8,0,1.4-0.6,1.4-1.4v-36.9c0-0.8-0.6-1.4-1.4-1.4h-29.8v2.8h5.7v8.5h2.8v-8.5H-51v17h-8.5v-11.3h-2.8v11.3h-5.7v2.8h17v14.2
					h-2.8v-9.9c0-0.8-0.6-1.4-1.4-1.4h-11.3c-0.8,0-1.4,0.6-1.4,1.4v9.9h-2.8v-19.7h-2.8v19.7h-17v-11.3h11.3v-2.8h-11.3V1288h5.7
					v-2.8H-92.2z M-65.2,1313.5h8.5v8.5h-8.5V1313.5z M-97.8,1333.4h0.8h0.7v8.5h-1.4c-2.4,0-4.3-1.9-4.3-4.3
					C-102.1,1335.3-100.2,1333.4-97.8,1333.4z M-75.2,1336.2c-0.2,0-0.4,0.1-0.6,0.2l-8.4,4.3c-0.7,0.4-1,1.2-0.6,1.9
					c0.1,0.3,0.4,0.5,0.6,0.6l8.5,4.3c0.2,0.1,0.4,0.2,0.7,0.2c0,0,0,0,0,0h24c0,0,0.1,0,0.1,0h3.1c2.8,0,5.2-2,5.2-4.7l0-2.1
					c0-2.7-2.5-4.6-5.2-4.6h-3.1c0,0-0.1,0-0.1,0v0l-23.6,0.1C-74.8,1336.2-75,1336.2-75.2,1336.2z M-52.5,1339L-52.5,1339l0,1.6
					l-21.2-0.1l0-1.4L-52.5,1339z M-49.6,1339h1.8c0,0,0,0,0,0c1.4,0,2.4,0.9,2.4,1.8l0,2.1c0,0.9-0.9,1.8-2.4,1.8h-1.8L-49.6,1339z
					 M-76.6,1339.9l0,4l-3.9-2L-76.6,1339.9z M-73.6,1343.3l21.2,0.1l0,1.4h-21.2L-73.6,1343.3z"/>
			</g>
		</g>
	</g>
</g>
</svg>
