<?xml version="1.0" encoding="utf-8"?>
<!-- Generator: Adobe Illustrator 19.0.0, SVG Export Plug-In . SVG Version: 6.00 Build 0)  -->
<svg version="1.1" id="Layer_1" xmlns="http://www.w3.org/2000/svg" xmlns:xlink="http://www.w3.org/1999/xlink" x="0px" y="0px"
	 viewBox="0 0 113.1 114.3" style="enable-background:new 0 0 113.1 114.3;" xml:space="preserve">
<style type="text/css">
	.st0{fill:#010101;}
</style>
<g id="XMLID_134_">
	<path id="XMLID_139_" class="st0" d="M101.5,63.2v-0.3c0-2-1.6-3.7-3.7-3.7H95V13.5H64.5v-2.6h-3v2.5H58v-2.5h-3v2.5h-3.5v-2.5h-3
		v2.5H45v-2.5h-3v2.5h-3.5v-2.5h-3v2.5H32v-2.5h-3v2.5h-3.5v-2.5h-3v2.5h-4.9v3.1h4.9v2.9h3v-2.9H29v2.9h3v-2.9h3.5v2.9h3v-2.9H42
		v2.9h3v-2.9h3.5v2.9h3v-2.9H55v2.9h3v-2.9h3.5v2.9h3v-2.9h5.7c0,2.4,1,4.6,2.8,6.3c2.7,2.6,7.1,4,11,4.7
		C73.9,33.6,69.8,49,68.2,59.2h-7.6c-0.1-0.8-0.4-1.6-1-2.3l-0.1-0.1c-1.4-1.4-3.7-1.4-5.1,0l-2.3,2.3h-8.6l-5-4.7c-2-2-5.4-2-7.4,0
		l-4.9,4.9H15.8c-2,0-3.7,1.6-3.7,3.7v0.3c0,9.4,4.6,17.7,11.7,22.8v0.3c0,2.2-0.8,4.2-2.4,5.8c-0.8,0.8-2.1,0.8-2.9,0l-1.3-1.3
		L15,93.1l1.3,1.3c1,1,2.3,1.5,3.6,1.5c1.3,0,2.7-0.5,3.7-1.6c1.7-1.7,2.8-4,3.2-6.4c4,2.2,8.6,3.4,13.4,3.4h33.1
		c4.8,0,9.3-1.2,13.3-3.4c0.3,2.4,1.4,4.6,3.2,6.4c1,1,2.3,1.5,3.7,1.5c1.3,0,2.6-0.5,3.7-1.5l1.3-1.3l-2.2-2.2L95,92.1
		c-0.8,0.8-2.1,0.8-2.9-0.1c-1.5-1.5-2.4-3.6-2.4-5.7V86C96.8,81,101.5,72.7,101.5,63.2z M75.1,20.7c-1.2-1.2-1.8-2.5-1.8-4.1H92
		v8.7C87.8,25.2,78.9,24.4,75.1,20.7z M91.9,28.4v39H70.4C71,60,74.5,29.6,91.9,28.4z M48.9,62.4l-1.2,1.2l-1.2-1.2H48.9z
		 M73.3,88.2h-33c-13.8,0-25-11.2-25-25v-0.3c-0.1-0.3,0.2-0.5,0.5-0.5h20.9L48,73.7l11.2-11.3h8.5c-0.5,3.6-0.6,6.1-0.6,6.5
		L67,70.5h28v-8.1h2.8c0.3,0,0.5,0.2,0.5,0.5v0.3C98.4,77,87.1,88.2,73.3,88.2z"/>
	<circle id="XMLID_138_" class="st0" cx="22.6" cy="47.2" r="7.9"/>
	<path id="XMLID_137_" class="st0" d="M61.9,38.6c0.4,0,0.8,0.1,1.2,0.3c0.3,0.3,0.5,0.6,0.6,1.1l3-0.3c-0.1-1.2-0.7-2.3-1.7-3.1
		s-2.2-1.1-3.4-1c-1.4,0.2-2.7,0.9-3.6,2c-0.9,1.1-1.3,2.5-1.2,3.9c0.2,1.7,1,3.2,2.3,4.2s3,1.5,4.6,1.4c2-0.2,3.8-1.2,5.1-2.8
		c1.3-1.6,1.8-3.5,1.6-5.5c-0.3-2.4-1.4-4.6-3.3-6.1c-1.9-1.5-4.2-2.2-6.6-1.9c-2,0.2-3.8,1-5.4,2.1c-1.4-3.9-5.4-6.5-9.7-6
		c-4,0.4-7,4-6.6,8.1c0.2,1.6,0.9,3,2.1,4c1.1,0.9,2.4,1.3,3.7,1.3c0.2,0,0.4,0,0.6,0c2.6-0.3,4.5-2.6,4.3-5.3
		c-0.2-2.2-2.2-3.8-4.4-3.5c-0.9,0.1-1.7,0.5-2.3,1.2l2.3,1.9c0-0.1,0.1-0.1,0.2-0.1c0.3,0,0.5,0,0.7,0.2s0.3,0.4,0.3,0.6
		c0.1,1-0.6,1.9-1.6,2c-1.6,0.2-3-1-3.2-2.6c-0.2-2.4,1.5-4.5,3.9-4.8c3.5-0.4,6.5,2.2,6.9,5.6l0,0c-1.3,1.9-2,4.2-1.9,6.7
		c0,0.2,0,0.4,0,0.6v9h3v-9.1v-0.2c0-0.2,0-0.3,0-0.5c-0.2-4.2,2.9-7.8,7-8.2c1.6-0.2,3.2,0.3,4.4,1.3c1.3,1,2,2.4,2.2,4
		c0.1,1.2-0.2,2.4-1,3.3c-0.8,0.9-1.8,1.5-3,1.7c-0.9,0.1-1.7-0.2-2.4-0.7c-0.7-0.6-1.1-1.3-1.2-2.2c-0.1-0.6,0.1-1.2,0.5-1.7
		S61.2,38.6,61.9,38.6z"/>
	<path id="XMLID_136_" class="st0" d="M58.3,47.6v4h-2v-6c0.4,0.6,0.9,1.1,1.5,1.6C58,47.4,58.2,47.5,58.3,47.6z"/>
	<path id="XMLID_135_" class="st0" d="M48.3,41.2v10.4h-2V42C47.1,41.9,47.7,41.6,48.3,41.2z"/>
</g>
</svg>
