<?xml version="1.0" encoding="utf-8"?>
<!-- Generator: Adobe Illustrator 19.0.0, SVG Export Plug-In . SVG Version: 6.00 Build 0)  -->
<svg version="1.1" id="Layer_1" xmlns="http://www.w3.org/2000/svg" xmlns:xlink="http://www.w3.org/1999/xlink" x="0px" y="0px"
	 viewBox="0 0 113.1 114.3" style="enable-background:new 0 0 113.1 114.3;" xml:space="preserve">
<style type="text/css">
	.st0{fill:#010101;}
</style>
<g id="XMLID_163_">
	<g id="XMLID_238_">
		<path id="XMLID_239_" class="st0" d="M83.7,88c-0.7,0-1.4-0.6-1.4-1.4V46.8c0-0.7,0.6-1.4,1.4-1.4s1.4,0.6,1.4,1.4v39.8
			C85,87.4,84.4,88,83.7,88z"/>
	</g>
	<g id="XMLID_236_">
		<path id="XMLID_237_" class="st0" d="M83.7,65.1c-0.2,0-0.3-0.1-0.5-0.2c-0.3-0.3-0.3-0.7,0-1l8-8c0.3-0.3,0.7-0.3,1,0
			c0.3,0.3,0.3,0.7,0,1l-8,8C84,65,83.8,65.1,83.7,65.1z"/>
	</g>
	<g id="XMLID_234_">
		<path id="XMLID_235_" class="st0" d="M83.7,54.2c-0.2,0-0.3-0.1-0.5-0.2c-0.3-0.3-0.3-0.7,0-1l8-8c0.3-0.3,0.7-0.3,1,0
			c0.3,0.3,0.3,0.7,0,1l-8,8C84,54.2,83.8,54.2,83.7,54.2z"/>
	</g>
	<g id="XMLID_232_">
		<path id="XMLID_233_" class="st0" d="M83.7,59.5c-0.2,0-0.3-0.1-0.5-0.2l-8-8c-0.3-0.3-0.3-0.7,0-1c0.3-0.3,0.7-0.3,1,0l8,8
			c0.3,0.3,0.3,0.7,0,1C84,59.4,83.8,59.5,83.7,59.5z"/>
	</g>
	<g id="XMLID_230_">
		<path id="XMLID_231_" class="st0" d="M80,49h-2c-0.4,0-0.7-0.3-0.7-0.7s0.3-0.7,0.7-0.7h2c0.4,0,0.7,0.3,0.7,0.7S80.4,49,80,49z"
			/>
	</g>
	<g id="XMLID_228_">
		<path id="XMLID_229_" class="st0" d="M87.7,42h-2c-0.4,0-0.7-0.3-0.7-0.7c0-0.4,0.3-0.7,0.7-0.7h2c0.4,0,0.7,0.3,0.7,0.7
			C88.3,41.7,88,42,87.7,42z"/>
	</g>
	<g id="XMLID_226_">
		<path id="XMLID_227_" class="st0" d="M89.7,53.7h-2c-0.4,0-0.7-0.3-0.7-0.7c0-0.4,0.3-0.7,0.7-0.7h2c0.4,0,0.7,0.3,0.7,0.7
			C90.4,53.4,90.1,53.7,89.7,53.7z"/>
	</g>
	<g id="XMLID_224_">
		<path id="XMLID_225_" class="st0" d="M94.8,50.3h-2c-0.4,0-0.7-0.3-0.7-0.7s0.3-0.7,0.7-0.7h2c0.4,0,0.7,0.3,0.7,0.7
			S95.2,50.3,94.8,50.3z"/>
	</g>
	<g id="XMLID_222_">
		<path id="XMLID_223_" class="st0" d="M92.7,61.1h-2c-0.4,0-0.7-0.3-0.7-0.7c0-0.4,0.3-0.7,0.7-0.7h2c0.4,0,0.7,0.3,0.7,0.7
			C93.3,60.8,93,61.1,92.7,61.1z"/>
	</g>
	<g id="XMLID_220_">
		<path id="XMLID_221_" class="st0" d="M82.3,41.2h-2c-0.4,0-0.7-0.3-0.7-0.7s0.3-0.7,0.7-0.7h2c0.4,0,0.7,0.3,0.7,0.7
			S82.7,41.2,82.3,41.2z"/>
	</g>
	<g id="XMLID_218_">
		<path id="XMLID_219_" class="st0" d="M31.4,88c-0.7,0-1.4-0.6-1.4-1.4V46.8c0-0.7,0.6-1.4,1.4-1.4s1.4,0.6,1.4,1.4v39.8
			C32.8,87.4,32.2,88,31.4,88z"/>
	</g>
	<g id="XMLID_216_">
		<path id="XMLID_217_" class="st0" d="M31.4,65.1c-0.2,0-0.3-0.1-0.5-0.2c-0.3-0.3-0.3-0.7,0-1l8-8c0.3-0.3,0.7-0.3,1,0
			c0.3,0.3,0.3,0.7,0,1l-8,8C31.8,65,31.6,65.1,31.4,65.1z"/>
	</g>
	<g id="XMLID_214_">
		<path id="XMLID_215_" class="st0" d="M31.4,54.2c-0.2,0-0.3-0.1-0.5-0.2c-0.3-0.3-0.3-0.7,0-1l8-8c0.3-0.3,0.7-0.3,1,0
			c0.3,0.3,0.3,0.7,0,1l-8,8C31.8,54.2,31.6,54.2,31.4,54.2z"/>
	</g>
	<g id="XMLID_212_">
		<path id="XMLID_213_" class="st0" d="M31.4,59.5c-0.2,0-0.3-0.1-0.5-0.2l-8-8c-0.3-0.3-0.3-0.7,0-1c0.3-0.3,0.7-0.3,1,0l8,8
			c0.3,0.3,0.3,0.7,0,1C31.8,59.4,31.6,59.5,31.4,59.5z"/>
	</g>
	<g id="XMLID_210_">
		<path id="XMLID_211_" class="st0" d="M24.4,45.2h-2c-0.4,0-0.7-0.3-0.7-0.7c0-0.4,0.3-0.7,0.7-0.7h2c0.4,0,0.7,0.3,0.7,0.7
			C25.1,44.9,24.8,45.2,24.4,45.2z"/>
	</g>
	<g id="XMLID_208_">
		<path id="XMLID_209_" class="st0" d="M27.4,62.3h-2c-0.4,0-0.7-0.3-0.7-0.7c0-0.4,0.3-0.7,0.7-0.7h2c0.4,0,0.7,0.3,0.7,0.7
			C28.1,62,27.8,62.3,27.4,62.3z"/>
	</g>
	<g id="XMLID_206_">
		<path id="XMLID_207_" class="st0" d="M27.7,49h-2c-0.4,0-0.7-0.3-0.7-0.7s0.3-0.7,0.7-0.7h2c0.4,0,0.7,0.3,0.7,0.7
			S28.1,49,27.7,49z"/>
	</g>
	<g id="XMLID_204_">
		<path id="XMLID_205_" class="st0" d="M35.4,42h-2c-0.4,0-0.7-0.3-0.7-0.7c0-0.4,0.3-0.7,0.7-0.7h2c0.4,0,0.7,0.3,0.7,0.7
			C36.1,41.7,35.8,42,35.4,42z"/>
	</g>
	<g id="XMLID_202_">
		<path id="XMLID_203_" class="st0" d="M23.4,57.1h-2c-0.4,0-0.7-0.3-0.7-0.7c0-0.4,0.3-0.7,0.7-0.7h2c0.4,0,0.7,0.3,0.7,0.7
			C24.1,56.8,23.8,57.1,23.4,57.1z"/>
	</g>
	<g id="XMLID_200_">
		<path id="XMLID_201_" class="st0" d="M37.4,53.7h-2c-0.4,0-0.7-0.3-0.7-0.7c0-0.4,0.3-0.7,0.7-0.7h2c0.4,0,0.7,0.3,0.7,0.7
			C38.1,53.4,37.8,53.7,37.4,53.7z"/>
	</g>
	<g id="XMLID_198_">
		<path id="XMLID_199_" class="st0" d="M42.6,50.3h-2c-0.4,0-0.7-0.3-0.7-0.7s0.3-0.7,0.7-0.7h2c0.4,0,0.7,0.3,0.7,0.7
			S43,50.3,42.6,50.3z"/>
	</g>
	<g id="XMLID_196_">
		<path id="XMLID_197_" class="st0" d="M30.1,41.2h-2c-0.4,0-0.7-0.3-0.7-0.7s0.3-0.7,0.7-0.7h2c0.4,0,0.7,0.3,0.7,0.7
			S30.4,41.2,30.1,41.2z"/>
	</g>
	<g id="XMLID_194_">
		<path id="XMLID_195_" class="st0" d="M57.5,87.5c-0.7,0-1.4-0.6-1.4-1.4V37.3c0-0.7,0.6-1.4,1.4-1.4s1.4,0.6,1.4,1.4v48.9
			C58.9,86.9,58.3,87.5,57.5,87.5z"/>
	</g>
	<g id="XMLID_192_">
		<path id="XMLID_193_" class="st0" d="M50.5,55.7h-2.9c-0.4,0-0.7-0.3-0.7-0.7s0.3-0.7,0.7-0.7h2.9c0.4,0,0.7,0.3,0.7,0.7
			S50.9,55.7,50.5,55.7z"/>
	</g>
	<g id="XMLID_190_">
		<path id="XMLID_191_" class="st0" d="M52,67.7H49c-0.4,0-0.7-0.3-0.7-0.7c0-0.4,0.3-0.7,0.7-0.7H52c0.4,0,0.7,0.3,0.7,0.7
			C52.7,67.4,52.4,67.7,52,67.7z"/>
	</g>
	<g id="XMLID_188_">
		<path id="XMLID_189_" class="st0" d="M53.5,39.5h-2.9c-0.4,0-0.7-0.3-0.7-0.7c0-0.4,0.3-0.7,0.7-0.7h2.9c0.4,0,0.7,0.3,0.7,0.7
			C54.1,39.2,53.8,39.5,53.5,39.5z"/>
	</g>
	<g id="XMLID_186_">
		<path id="XMLID_187_" class="st0" d="M59,25h-2.9c-0.4,0-0.7-0.3-0.7-0.7c0-0.4,0.3-0.7,0.7-0.7H59c0.4,0,0.7,0.3,0.7,0.7
			C59.7,24.7,59.4,25,59,25z"/>
	</g>
	<g id="XMLID_184_">
		<path id="XMLID_185_" class="st0" d="M64.4,40.4h-2.9c-0.4,0-0.7-0.3-0.7-0.7s0.3-0.7,0.7-0.7h2.9c0.4,0,0.7,0.3,0.7,0.7
			S64.8,40.4,64.4,40.4z"/>
	</g>
	<g id="XMLID_182_">
		<path id="XMLID_183_" class="st0" d="M65.9,55.7H63c-0.4,0-0.7-0.3-0.7-0.7s0.3-0.7,0.7-0.7h2.9c0.4,0,0.7,0.3,0.7,0.7
			S66.3,55.7,65.9,55.7z"/>
	</g>
	<g id="XMLID_180_">
		<path id="XMLID_181_" class="st0" d="M64.4,69.7h-2.9c-0.4,0-0.7-0.3-0.7-0.7s0.3-0.7,0.7-0.7h2.9c0.4,0,0.7,0.3,0.7,0.7
			S64.8,69.7,64.4,69.7z"/>
	</g>
	<g id="XMLID_176_">
		<path id="XMLID_177_" class="st0" d="M99.3,96.6H15.8c-0.7,0-1.4-0.6-1.4-1.4v-8.4c0-0.7,0.6-1.4,1.4-1.4h83.6
			c0.7,0,1.4,0.6,1.4,1.4v8.4C100.7,96,100.1,96.6,99.3,96.6z M17.1,93.9H98v-5.7H17.1V93.9z"/>
	</g>
	<g id="XMLID_172_">
		<path id="XMLID_173_" class="st0" d="M77.8,75.1L77.8,75.1H37.3c-0.5,0-1-0.3-1.2-0.8c-0.2-0.5-0.1-1,0.2-1.5l9.6-10.8h-8.6
			c-0.5,0-1-0.3-1.2-0.8c-0.2-0.5-0.2-1,0.2-1.4l10.9-13.7h-7.5c-0.5,0-1-0.3-1.2-0.8s-0.1-1,0.2-1.5l9.8-11h-5.2
			c-0.5,0-1-0.3-1.2-0.7c-0.2-0.4-0.2-1,0.1-1.4l14.2-20c0.3-0.4,0.7-0.6,1.1-0.6l0,0c0.4,0,0.8,0.2,1.1,0.6l14.3,19.9
			c0.2,0.2,0.4,0.6,0.4,0.9c0,0.7-0.6,1.4-1.4,1.4c0,0,0,0,0,0h-5.3l9.8,10.9c0.3,0.2,0.5,0.6,0.5,1c0,0.7-0.6,1.4-1.4,1.4
			c0,0,0,0,0,0h-8.3l11.7,13.7c0.3,0.4,0.4,1,0.2,1.4c-0.2,0.5-0.7,0.8-1.2,0.8h-8.7l9.6,10.6c0.3,0.2,0.5,0.6,0.5,1
			C79.2,74.5,78.6,75.1,77.8,75.1z M40.3,72.4h34.5l-9.7-10.8c-0.4-0.4-0.4-1-0.2-1.5c0.2-0.5,0.7-0.8,1.2-0.8h8.8L63.2,45.8
			c-0.3-0.4-0.4-1-0.2-1.4c0.2-0.5,0.7-0.8,1.2-0.8h8.2l-9.9-11c-0.4-0.4-0.4-1-0.2-1.5c0.2-0.5,0.7-0.8,1.2-0.8h5.7L57.5,13.9
			L45.8,30.3h5.6c0.5,0,1,0.3,1.2,0.8c0.2,0.5,0.1,1-0.2,1.5l-9.8,11H50c0.5,0,1,0.3,1.2,0.8s0.2,1-0.2,1.4L40.1,59.4h8.7
			c0.5,0,1,0.3,1.2,0.8c0.2,0.5,0.1,1-0.2,1.5L40.3,72.4z"/>
	</g>
	<g id="XMLID_168_">
		<path id="XMLID_169_" class="st0" d="M83.7,69.1c-5.7,0-11-2.8-14.1-7.5c-0.3-0.4-0.3-0.9-0.1-1.4c0.2-0.4,0.7-0.7,1.2-0.7h4.2
			l-7.7-9c-0.3-0.3-0.4-0.7-0.3-1.1c0.3-1.7,0.8-3.4,1.6-5c0.2-0.4,0.7-0.7,1.2-0.7h2.7l-1.2-1.3c-0.5-0.5-0.5-1.3,0-1.8
			C74.4,37,79,35,83.7,35c9.4,0,17,7.6,17,17C100.7,61.4,93,69.1,83.7,69.1z M73.5,62.1c2.7,2.7,6.3,4.2,10.2,4.2
			C91.6,66.4,98,59.9,98,52c0-7.9-6.4-14.3-14.3-14.3c-3.6,0-7,1.3-9.6,3.7l2.3,2.6c0.4,0.4,0.4,1,0.2,1.5c-0.2,0.5-0.7,0.8-1.2,0.8
			h-4.9c-0.4,0.9-0.7,1.9-0.9,2.9l9.2,10.8c0.3,0.4,0.4,1,0.2,1.4c-0.2,0.5-0.7,0.8-1.2,0.8L73.5,62.1L73.5,62.1z"/>
	</g>
	<g id="XMLID_164_">
		<path id="XMLID_165_" class="st0" d="M31.4,69.1c-9.4,0-17-7.6-17-17s7.6-17,17-17c4.7,0,9.2,2,12.4,5.4c0.5,0.5,0.5,1.3,0,1.8
			l-1.2,1.3h2.7c0.5,0,1,0.3,1.2,0.7c0.7,1.4,1.2,2.9,1.5,4.4c0.1,0.4,0,0.8-0.3,1.1l-7.7,9.7h4.3c0.5,0,1,0.3,1.2,0.7
			c0.2,0.4,0.2,1-0.1,1.4C42.4,66.2,37.1,69.1,31.4,69.1z M31.4,37.7c-7.9,0-14.3,6.4-14.3,14.3c0,7.9,6.4,14.3,14.3,14.3
			c3.9,0,7.5-1.5,10.2-4.2h-4.3c-0.5,0-1-0.3-1.2-0.8c-0.2-0.5-0.2-1,0.2-1.4l9.1-11.4c-0.2-0.8-0.5-1.6-0.8-2.3h-4.9
			c-0.5,0-1-0.3-1.2-0.8c-0.2-0.5-0.1-1,0.2-1.5l2.3-2.6C38.4,39,35,37.7,31.4,37.7z"/>
	</g>
</g>
</svg>
